<svg xmlns="http://www.w3.org/2000/svg" data-name="Layer 1" viewBox="0 0 100 125" x="0px" y="0px"><title>Noun_Project_20Icon_5px_grid</title><path d="M87.36,16.25H12.64A7.58,7.58,0,0,0,5,23.74V76.26a7.58,7.58,0,0,0,7.64,7.49H87.36A7.58,7.58,0,0,0,95,76.26V23.74A7.58,7.58,0,0,0,87.36,16.25ZM21.88,72.5H10.63V61.25H21.88V72.5Zm0-16.87H10.63V44.38H21.88V55.63Zm0-16.87H10.63V27.5H21.88V38.75ZM38.75,66.88V33.13L66.88,50ZM89.38,72.5H78.13V61.25H89.38V72.5Zm0-16.87H78.13V44.38H89.38V55.63Zm0-16.87H78.13V27.5H89.38V38.75Z"/><text x="0" y="115" fill="#000000" font-size="5px" font-weight="bold" font-family="'Helvetica Neue', Helvetica, Arial-Unicode, Arial, Sans-serif">Created by ermankutlu</text><text x="0" y="120" fill="#000000" font-size="5px" font-weight="bold" font-family="'Helvetica Neue', Helvetica, Arial-Unicode, Arial, Sans-serif">from the Noun Project</text></svg>