<svg version="1.2" xmlns="http://www.w3.org/2000/svg" viewBox="0 0 100 99" width="100" height="99">
	<title>filmPLAY</title>
	<defs>
		<clipPath clipPathUnits="userSpaceOnUse" id="cp1">
			<path d="m87.4 16.3l-74.8-0.1q-1.5 0-2.9 0.6-1.4 0.6-2.4 1.6-1.1 1.1-1.7 2.5-0.6 1.3-0.6 2.8v52.6q0 1.5 0.6 2.8 0.6 1.4 1.7 2.5 1 1 2.4 1.6 1.4 0.6 2.9 0.5h74.8q1.5 0.1 2.9-0.5 1.4-0.6 2.4-1.6 1.1-1.1 1.7-2.5 0.6-1.3 0.6-2.8v-52.6q0-1.5-0.6-2.8-0.6-1.4-1.7-2.5-1-1-2.4-1.6-1.4-0.6-2.9-0.6zm-65.5 56.3h-11.3v-11.3h11.3zm0-16.8h-11.3v-11.3h11.3zm0-16.8h-11.3v-11.3h11.3zm16.8 28.1v-33.8l28.2 16.9zm50.6 5.6h-11.2v-11.2h11.2zm0-16.9h-11.2v-11.2h11.2zm0-16.9h-11.2v-11.3h11.2z"/>
		</clipPath>
	</defs>
	<style>
		.s0 { fill: #000000 } 
	</style>
	<g clip-path="url(#cp1)">
		<path class="s0" d="m87.4 16.3l-74.8-0.1q-1.5 0-2.9 0.6-1.4 0.6-2.4 1.6-1.1 1.1-1.7 2.5-0.6 1.3-0.6 2.8v52.6q0 1.5 0.6 2.8 0.6 1.4 1.7 2.5 1 1 2.4 1.6 1.4 0.6 2.9 0.5h74.8q1.5 0.1 2.9-0.5 1.4-0.6 2.4-1.6 1.1-1.1 1.7-2.5 0.6-1.3 0.6-2.8v-52.6q0-1.5-0.6-2.8-0.6-1.4-1.7-2.5-1-1-2.4-1.6-1.4-0.6-2.9-0.6zm-65.5 56.3h-11.3v-11.3h11.3zm0-16.8h-11.3v-11.3h11.3zm0-16.8h-11.3v-11.3h11.3zm16.8 28.1v-33.8l28.2 16.9zm50.6 5.6h-11.2v-11.2h11.2zm0-16.9h-11.2v-11.2h11.2zm0-16.9h-11.2v-11.3h11.2z"/>
		<rect width="100" height="99" id="Color Fill 1" style="fill: #ffffff"/>
	</g>
</svg>